<svg version="1.1" id="レイヤー_1" xmlns="http://www.w3.org/2000/svg" x="0" y="0" viewBox="0 0 651.9 177.4" xml:space="preserve"><style>.st0{fill:#1b8aa8}</style><g id="レイヤー_5"><path d="M252.3 74h14.3v38.2h47.8v12.7h-47.7v49.3h-14.3L252.3 74zM333.5 80.4h85.9v14.3h-46.1v17.5h52.5V125h-52.4v25.9c0 2.1.4 3.4 1.1 4.1 1.4 1.4 6.4 1.6 18.5 1.6 8.6 0 19.2-1 28.1-1.6v14.3c-9.2.5-19.8 0-28 0-12.1 0-19.9-.4-23.2-1.1-4.7-1-7.9-3.2-9.4-6.5-.9-1.9-1.4-4.5-1.4-7.5v-29.4h-30.2v-12.7h30.2V94.6h-25.5V80.4h-.1zM444.9 83.6h84.3v14.3h-35v52.5h41.3v14.3h-97v-14.3h41.3V97.9h-35V83.6h.1zM613.5 134.5v7.9h33.4v11.2h-33.4v9.6h38.2v11.1h-85.9v-11.1h35v-9.6h-30.3v-11.2h30.3v-6.3H569v-11.2h7.9c2.8-3.5 8-9.7 8-9.7h-17.5c0 .9 0 2.3-.1 3.6-.1 15-.8 25.8-1.8 32.5-1.4 8.4-6.6 16.8-11.2 24.9l-10-9.1c3.2-5.5 5.3-11.4 6.6-17.6 1.5-7.7 2.3-17.9 2.3-35.2V73.9h92.3v25.5h-78v4.9h84.4v11h-20.6c6.4 5 11.8 12.6 17.5 19.3l-10 7.1s-3.7-5.5-5.1-7.2h-20.2zm19.1-50.9h-65.3v6.2h65.3v-6.2zm-6.2 31.7h-27.9s-5.2 6-8.3 9.6h37.2c-2.1-2.2-5.6-5.3-8.1-7.5l7.1-2.1z"/><g><path d="M269.6 10.4c.7-1.4 1.4-3.6 2.3-6 .4-1.3 1.2-2.1 2.5-2.1 1.6 0 3.1.8 3.1 2.7 0 .7-.7 2.9-1.6 5.3h30.5c2 0 2.8 1.2 2.8 2.8 0 1.7-.8 2.9-2.8 2.9h-33.1c-.9 1.9-2.2 4.2-3.9 6.7h26.8c4.1 0 5.8 1.6 5.8 5.8v29.6c0 6.6-3.7 7.4-10.6 7.4-1.7 0-5.3 0-5.3-3.1 0-2.4 2.1-2.8 3.2-2.8.6 0 2.3.2 4.2.2 2.1 0 2.7-.1 2.7-2.9v-4.8H266v11.6c0 2-1.2 2.8-2.9 2.8-1.6 0-2.8-.8-2.8-2.8V33.3c-2.5 2.5-8.6 7.8-11.1 7.8-1.8 0-2.9-1.2-2.9-2.9s1.4-2.4 3.6-3.8c6-3.8 12.9-10.7 17.1-18.4h-17.6c-2 0-2.8-1.2-2.8-2.9 0-1.6.8-2.8 2.8-2.8h20.2v.1zM266 34.8h30.2v-5.1c0-1.1-.3-1.4-1.4-1.4h-27.3c-1.1 0-1.4.3-1.4 1.4v5.1h-.1zm0 5.3v6.7h30.2v-6.7H266zM324.1 9.4c0-2.5 1.6-4.2 4.2-4.2h13.5c2.3 0 3.8 1.6 3.8 3.6 0 2.7-6 16.9-6 17.7 0 .7.4 1.2 1 2.1.8 1 5.2 7.1 5.2 14.9 0 5.7-3 9-8.9 9-4.5 0-6-1-6-3.2 0-1.8 1.1-2.9 2.5-2.9 1.2 0 2.3.3 3.5.3 2.3 0 3.2-.7 3.2-3.6 0-2-.1-5.8-4.7-12.5-.9-1.3-1.6-2.5-1.6-4.2 0-.9.3-2 .8-3.2 1.6-3.9 4.4-11 4.4-11.9 0-.3-.1-.6-.8-.6h-7.5c-.8 0-1.1.4-1.1 1.1V64c0 1.9-1.2 2.8-2.9 2.8-1.6 0-2.8-.9-2.8-2.8V9.4h.2zm29.7 25.8V58c3.2-1.2 6.1-2.5 8.8-3.8.8-.4 1.3-.7 2.1-.7 1.6 0 2.8 1.4 2.8 2.9 0 1.4-1.1 2.3-2 2.7C361.7 61 350 66 348.1 66c-1.6 0-3-1.4-3-3s1-2.4 3.2-3.2V9.3c0-2.5 1.7-4.2 4.2-4.2h24.1c2.5 0 4.2 1.7 4.2 4.2V31c0 2.5-1.7 4.2-4.2 4.2h-10.1c1 3.7 2.2 6.9 4.2 10.4 1.9-1.3 4.7-3.7 7.1-5.9 1.8-1.7 2.4-2 3.4-2 1.4 0 2.9 1.4 2.9 2.7 0 1 0 2.2-10.3 9.9 2.3 3.2 6.3 6.9 9.5 8.9 2.1 1.2 2.6 1.9 2.6 3.3 0 1.6-1.4 3.1-2.9 3.1-3 0-11.7-8.4-16-15.5-1.8-2.9-4-7.7-6.2-14.9h-7zm1.6-24.8c-1.3 0-1.6.3-1.6 1.6v5.4h21.3V12c0-1.3-.3-1.6-1.6-1.6h-18.1zm-1.6 12.1v7.7h19.8c1.3 0 1.6-.3 1.6-1.6v-6.1h-21.4zM456.9 22.6c2 .7 2.6 1.8 2.6 3 0 1.9-1.4 3.2-2.9 3.2-3.8 0-18.8-7.7-28.4-17.7-9.1 9.5-25.5 17.9-28.8 17.9-1.5 0-2.7-1.5-2.7-3.3 0-1.6 1.1-2.2 3.2-3.1 12.1-5 20.3-11.3 25.4-17.3 1.2-1.4 2.2-1.9 3.2-1.9 1.9 0 3.4 1.6 3.3 3 8 8.2 16.7 13.2 25.1 16.2zm-30.8 19.1c-2.4 4.2-8.2 12.2-12.3 16.9 7.5-.4 21.2-1.2 29.7-2.3-1.5-1.8-3.8-4.2-6.1-6.9-1.1-1.2-1.5-1.9-1.5-2.6 0-1.5 1.6-3 3.2-3 1.4 0 2.3 1 3.6 2.4 4 4.2 7.9 9 10.8 12.9 1.2 1.6 1.8 2.7 1.8 4 0 1.5-1.7 3-3.4 3-1.4 0-2.1-1-2.9-2.3-.6-1-1.4-2.1-1.8-2.7-9.6 1.5-35.8 3.5-41.3 3.5-2.1 0-3.4-.9-3.4-2.9 0-3 2.4-3 4.2-3 4.3-5 9-11.2 12.7-17.1h-17.9c-1.9 0-2.7-1.1-2.7-2.8 0-1.6.8-2.7 2.7-2.7h53.1c1.9 0 2.8 1.1 2.8 2.7 0 1.7-.9 2.8-2.8 2.8l-28.5.1zm-12.6-12.1c-2 0-2.8-1.2-2.8-2.8s.8-2.8 2.8-2.8h28.8c2 0 2.8 1.2 2.8 2.8s-.8 2.8-2.8 2.8h-28.8zM485.3 12.8h6.5c2.1 0 3.2 1.1 3.2 3.2 0 1.6-1.4 6.2-8.2 14.9 3.1 2 7.1 5 9.2 6.9 1.2 1 1.4 1.8 1.4 2.7 0 1.6-1.2 3.1-2.7 3.1-1.2 0-2-.5-3.5-2.1-1.7-1.6-3.6-3.2-5.9-5.1v26c0 1.9-1.1 2.7-2.7 2.7s-2.7-.8-2.7-2.7V38.5c-2.7 2.7-8.3 7.3-10.3 7.3-1.4 0-2.6-1.4-2.6-2.9 0-1.1.5-1.6 1.8-2.6 6.2-4.5 12.1-9.7 17.4-18.2 1.2-1.9 1.9-3.2 1.9-3.5s-.3-.4-.8-.4h-16.9c-1.8 0-2.7-1.1-2.7-2.7s.8-2.7 2.7-2.7h9.5V4c0-1.8 1-2.7 2.6-2.7s2.7.8 2.7 2.7l.1 8.8zm29.8 12.6v31.5h13.2c2 0 2.8 1.1 2.8 2.8s-.8 2.8-2.8 2.8h-33.2c-1.9 0-2.7-1.1-2.7-2.8s.8-2.8 2.7-2.8h14.2V25.4h-10.4c-1.9 0-2.7-1.1-2.7-2.7s.8-2.7 2.7-2.7h10.4V4.1c0-2.1 1.2-2.9 2.9-2.9s2.9.8 2.9 2.9v15.8h11.6c1.9 0 2.7 1.1 2.7 2.7s-.8 2.7-2.7 2.7h-11.6v.1z"/></g><path class="st0" d="M66.7 8.2v161.2C27.3 155.4 0 124.5 0 88.8 0 53 27.3 22.2 66.7 8.2"/><path d="M229.3 88.8c0 9.1-1.7 17.8-5 26-.5 1.3-1 2.5-1.6 3.7 1.4-3.4 2.2-7.1 2.3-11v-.2-.6-.3-.1c0-.3 0-.7-.1-1v-.4c0-.3 0-.5-.1-.8-2.7-26.9-34.2-48.2-72.7-48.2-22.9 0-43.3 7.5-56.6 19.2V1.3C101.8.5 108.2 0 114.7 0c63.3.1 114.6 39.8 114.6 88.8" fill="#52ac4a"/><path class="st0" d="M221.9 120.2c-4.1 8.5-9.9 16.3-17 23.3-21 20.7-53.6 33.9-90.2 33.9-6.6 0-13-.4-19.2-1.3V77.6c8.9-7.2 21.2-11.7 34.8-11.7 19.5 0 36.3 9.2 44.2 22.5-4.4 5-7 11.6-7 18.8 0 6.4 2.1 12.3 5.6 17.1 5.2 7.1 13.7 11.7 23.2 11.7 11.1.1 20.8-6.3 25.6-15.8"/></g></svg>