<?xml version="1.0" encoding="utf-8"?>
<!-- Generator: Adobe Illustrator 25.0.1, SVG Export Plug-In . SVG Version: 6.00 Build 0)  -->
<svg version="1.1" id="レイヤー_1" xmlns="http://www.w3.org/2000/svg" xmlns:xlink="http://www.w3.org/1999/xlink" x="0px"
	 y="0px" viewBox="0 0 229.4 177.5" style="enable-background:new 0 0 229.4 177.5;" xml:space="preserve">
<style type="text/css">
	.st0{fill:#258AA7;}
	.st1{fill:#52AC4A;}
</style>
<g id="レイヤー_1_1_">
</g>
<g id="レイヤー_3">
</g>
<g id="レイヤー_4">
</g>
<g id="レイヤー_5">
	<g>
		<path class="st0" d="M66.7,8.2v161.2C27.3,155.4,0,124.5,0,88.8C0,53.1,27.4,22.2,66.7,8.2"/>
		<path class="st1" d="M229.4,88.8c0,9.1-1.7,17.8-5,26c-0.5,1.3-1,2.5-1.6,3.7c1.4-3.4,2.2-7.1,2.3-11v-0.2c0-0.2,0-0.4,0-0.6
			c0-0.1,0-0.2,0-0.3c0,0,0,0,0-0.1c0-0.3,0-0.7-0.1-1c0-0.1,0-0.3,0-0.4c0-0.3,0-0.5-0.1-0.8l0,0c-2.7-26.9-34.2-48.2-72.7-48.2
			c-22.9,0-43.3,7.5-56.6,19.2V1.3c6.3-0.8,12.7-1.3,19.2-1.3C178,0.1,229.4,39.8,229.4,88.8"/>
		<path class="st0" d="M221.9,120.3c-4.1,8.5-9.9,16.3-17,23.3l0,0c-21,20.7-53.6,33.9-90.2,33.9c-6.6,0-13-0.4-19.2-1.3V77.7
			c8.9-7.2,21.2-11.7,34.8-11.7c19.5,0,36.3,9.2,44.2,22.5c-4.4,5-7,11.6-7,18.8c0,6.4,2.1,12.3,5.6,17.1
			c5.2,7.1,13.7,11.7,23.2,11.7C207.5,136.1,217.2,129.7,221.9,120.3"/>
	</g>
</g>
</svg>
