<?xml version="1.0" encoding="utf-8"?>
<!-- Generator: Adobe Illustrator 25.0.1, SVG Export Plug-In . SVG Version: 6.00 Build 0)  -->
<svg version="1.1" id="レイヤー_1" xmlns="http://www.w3.org/2000/svg" xmlns:xlink="http://www.w3.org/1999/xlink" x="0px"
	 y="0px" viewBox="0 0 651.9 177.4" style="enable-background:new 0 0 651.9 177.4;" xml:space="preserve">
<style type="text/css">
	.st0{fill:#040000;}
</style>
<g id="レイヤー_1_1_">
</g>
<g id="レイヤー_3">
</g>
<g id="レイヤー_4">
</g>
<g id="レイヤー_5">
	<g>
		<g>
			<g>
				<path d="M252.3,74h14.3v38.2h47.8v12.7h-47.7v49.3h-14.3L252.3,74L252.3,74z"/>
				<path d="M333.5,80.4h85.9v14.3h-46.1v17.5h52.5V125h-52.4v25.9c0,2.1,0.4,3.4,1.1,4.1c1.4,1.4,6.4,1.6,18.5,1.6
					c8.6,0,19.2-1,28.1-1.6v14.3c-9.2,0.5-19.8,0-28,0c-12.1,0-19.9-0.4-23.2-1.1c-4.7-1-7.9-3.2-9.4-6.5c-0.9-1.9-1.4-4.5-1.4-7.5
					v-29.4h-30.2v-12.7h30.2V94.6h-25.5V80.4H333.5z"/>
				<path d="M444.9,83.6h84.3v14.3h-35v52.5h41.3v14.3h-97v-14.3h41.3V97.9h-35V83.6H444.9z"/>
				<path d="M613.5,134.5v7.9h33.4v11.2h-33.4v9.6h38.2v11.1h-85.9v-11.1h35v-9.6h-30.3v-11.2h30.3v-6.3H569v-11.2h7.9
					c2.8-3.5,8-9.7,8-9.7h-17.5c0,0.9,0,2.3-0.1,3.6c-0.1,15-0.8,25.8-1.8,32.5c-1.4,8.4-6.6,16.8-11.2,24.9l-10-9.1
					c3.2-5.5,5.3-11.4,6.6-17.6c1.5-7.7,2.3-17.9,2.3-35.2V73.9h92.3v25.5h-78v4.9h84.4v11h-20.6c6.4,5,11.8,12.6,17.5,19.3l-10,7.1
					c0,0-3.7-5.5-5.1-7.2H613.5z M632.6,83.6h-65.3v6.2h65.3V83.6z M626.4,115.3h-27.9c0,0-5.2,6-8.3,9.6h37.2
					c-2.1-2.2-5.6-5.3-8.1-7.5L626.4,115.3z"/>
			</g>
			<g>
				<path d="M269.6,10.4c0.7-1.4,1.4-3.6,2.3-6c0.4-1.3,1.2-2.1,2.5-2.1c1.6,0,3.1,0.8,3.1,2.7c0,0.7-0.7,2.9-1.6,5.3h30.5
					c2,0,2.8,1.2,2.8,2.8c0,1.7-0.8,2.9-2.8,2.9h-33.1c-0.9,1.9-2.2,4.2-3.9,6.7h26.8c4.1,0,5.8,1.6,5.8,5.8v29.6
					c0,6.6-3.7,7.4-10.6,7.4c-1.7,0-5.3,0-5.3-3.1c0-2.4,2.1-2.8,3.2-2.8c0.6,0,2.3,0.2,4.2,0.2c2.1,0,2.7-0.1,2.7-2.9v-4.8H266
					v11.6c0,2-1.2,2.8-2.9,2.8c-1.6,0-2.8-0.8-2.8-2.8V33.3c-2.5,2.5-8.6,7.8-11.1,7.8c-1.8,0-2.9-1.2-2.9-2.9s1.4-2.4,3.6-3.8
					c6-3.8,12.9-10.7,17.1-18.4h-17.6c-2,0-2.8-1.2-2.8-2.9c0-1.6,0.8-2.8,2.8-2.8h20.2V10.4z M266,34.8h30.2v-5.1
					c0-1.1-0.3-1.4-1.4-1.4h-27.3c-1.1,0-1.4,0.3-1.4,1.4v5.1H266z M266,40.1v6.7h30.2v-6.7H266z"/>
				<path d="M324.1,9.4c0-2.5,1.6-4.2,4.2-4.2h13.5c2.3,0,3.8,1.6,3.8,3.6c0,2.7-6,16.9-6,17.7c0,0.7,0.4,1.2,1,2.1
					c0.8,1,5.2,7.1,5.2,14.9c0,5.7-3,9-8.9,9c-4.5,0-6-1-6-3.2c0-1.8,1.1-2.9,2.5-2.9c1.2,0,2.3,0.3,3.5,0.3c2.3,0,3.2-0.7,3.2-3.6
					c0-2-0.1-5.8-4.7-12.5c-0.9-1.3-1.6-2.5-1.6-4.2c0-0.9,0.3-2,0.8-3.2c1.6-3.9,4.4-11,4.4-11.9c0-0.3-0.1-0.6-0.8-0.6h-7.5
					c-0.8,0-1.1,0.4-1.1,1.1V64c0,1.9-1.2,2.8-2.9,2.8c-1.6,0-2.8-0.9-2.8-2.8V9.4H324.1z M353.8,35.2V58c3.2-1.2,6.1-2.5,8.8-3.8
					c0.8-0.4,1.3-0.7,2.1-0.7c1.6,0,2.8,1.4,2.8,2.9c0,1.4-1.1,2.3-2,2.7C361.7,61,350,66,348.1,66c-1.6,0-3-1.4-3-3
					c0-1.6,1-2.4,3.2-3.2V9.3c0-2.5,1.7-4.2,4.2-4.2h24.1c2.5,0,4.2,1.7,4.2,4.2V31c0,2.5-1.7,4.2-4.2,4.2h-10.1
					c1,3.7,2.2,6.9,4.2,10.4c1.9-1.3,4.7-3.7,7.1-5.9c1.8-1.7,2.4-2,3.4-2c1.4,0,2.9,1.4,2.9,2.7c0,1,0,2.2-10.3,9.9
					c2.3,3.2,6.3,6.9,9.5,8.9c2.1,1.2,2.6,1.9,2.6,3.3c0,1.6-1.4,3.1-2.9,3.1c-3,0-11.7-8.4-16-15.5c-1.8-2.9-4-7.7-6.2-14.9H353.8z
					 M355.4,10.4c-1.3,0-1.6,0.3-1.6,1.6v5.4h21.3V12c0-1.3-0.3-1.6-1.6-1.6H355.4z M353.8,22.5v7.7h19.8c1.3,0,1.6-0.3,1.6-1.6
					v-6.1H353.8z"/>
				<path d="M456.9,22.6c2,0.7,2.6,1.8,2.6,3c0,1.9-1.4,3.2-2.9,3.2c-3.8,0-18.8-7.7-28.4-17.7c-9.1,9.5-25.5,17.9-28.8,17.9
					c-1.5,0-2.7-1.5-2.7-3.3c0-1.6,1.1-2.2,3.2-3.1c12.1-5,20.3-11.3,25.4-17.3c1.2-1.4,2.2-1.9,3.2-1.9c1.9,0,3.4,1.6,3.3,3
					C439.8,14.6,448.5,19.6,456.9,22.6z M426.1,41.7c-2.4,4.2-8.2,12.2-12.3,16.9c7.5-0.4,21.2-1.2,29.7-2.3
					c-1.5-1.8-3.8-4.2-6.1-6.9c-1.1-1.2-1.5-1.9-1.5-2.6c0-1.5,1.6-3,3.2-3c1.4,0,2.3,1,3.6,2.4c4,4.2,7.9,9,10.8,12.9
					c1.2,1.6,1.8,2.7,1.8,4c0,1.5-1.7,3-3.4,3c-1.4,0-2.1-1-2.9-2.3c-0.6-1-1.4-2.1-1.8-2.7c-9.6,1.5-35.8,3.5-41.3,3.5
					c-2.1,0-3.4-0.9-3.4-2.9c0-3,2.4-3,4.2-3c4.3-5,9-11.2,12.7-17.1h-17.9c-1.9,0-2.7-1.1-2.7-2.8c0-1.6,0.8-2.7,2.7-2.7h53.1
					c1.9,0,2.8,1.1,2.8,2.7c0,1.7-0.9,2.8-2.8,2.8L426.1,41.7L426.1,41.7z M413.5,29.6c-2,0-2.8-1.2-2.8-2.8s0.8-2.8,2.8-2.8h28.8
					c2,0,2.8,1.2,2.8,2.8s-0.8,2.8-2.8,2.8H413.5z"/>
				<path d="M485.3,12.8h6.5c2.1,0,3.2,1.1,3.2,3.2c0,1.6-1.4,6.2-8.2,14.9c3.1,2,7.1,5,9.2,6.9c1.2,1,1.4,1.8,1.4,2.7
					c0,1.6-1.2,3.1-2.7,3.1c-1.2,0-2-0.5-3.5-2.1c-1.7-1.6-3.6-3.2-5.9-5.1v26c0,1.9-1.1,2.7-2.7,2.7c-1.6,0-2.7-0.8-2.7-2.7V38.5
					c-2.7,2.7-8.3,7.3-10.3,7.3c-1.4,0-2.6-1.4-2.6-2.9c0-1.1,0.5-1.6,1.8-2.6c6.2-4.5,12.1-9.7,17.4-18.2c1.2-1.9,1.9-3.2,1.9-3.5
					s-0.3-0.4-0.8-0.4h-16.9c-1.8,0-2.7-1.1-2.7-2.7s0.8-2.7,2.7-2.7h9.5V4c0-1.8,1-2.7,2.6-2.7s2.7,0.8,2.7,2.7L485.3,12.8
					L485.3,12.8z M515.1,25.4v31.5h13.2c2,0,2.8,1.1,2.8,2.8s-0.8,2.8-2.8,2.8h-33.2c-1.9,0-2.7-1.1-2.7-2.8s0.8-2.8,2.7-2.8h14.2
					V25.4h-10.4c-1.9,0-2.7-1.1-2.7-2.7s0.8-2.7,2.7-2.7h10.4V4.1c0-2.1,1.2-2.9,2.9-2.9c1.7,0,2.9,0.8,2.9,2.9v15.8h11.6
					c1.9,0,2.7,1.1,2.7,2.7s-0.8,2.7-2.7,2.7h-11.6V25.4z"/>
			</g>
		</g>
		<path class="st0" d="M66.7,8.2v161.2C27.3,155.4,0,124.5,0,88.8C0,53,27.3,22.2,66.7,8.2"/>
		<path class="st0" d="M229.3,88.8c0,9.1-1.7,17.8-5,26c-0.5,1.3-1,2.5-1.6,3.7c1.4-3.4,2.2-7.1,2.3-11v-0.2c0-0.2,0-0.4,0-0.6
			c0-0.1,0-0.2,0-0.3c0,0,0,0,0-0.1c0-0.3,0-0.7-0.1-1c0-0.1,0-0.3,0-0.4c0-0.3,0-0.5-0.1-0.8l0,0c-2.7-26.9-34.2-48.2-72.7-48.2
			c-22.9,0-43.3,7.5-56.6,19.2V1.3c6.3-0.8,12.7-1.3,19.2-1.3C178,0.1,229.3,39.8,229.3,88.8"/>
		<path d="M221.9,120.2c-4.1,8.5-9.9,16.3-17,23.3l0,0c-21,20.7-53.6,33.9-90.2,33.9c-6.6,0-13-0.4-19.2-1.3V77.6
			c8.9-7.2,21.2-11.7,34.8-11.7c19.5,0,36.3,9.2,44.2,22.5c-4.4,5-7,11.6-7,18.8c0,6.4,2.1,12.3,5.6,17.1
			c5.2,7.1,13.7,11.7,23.2,11.7C207.4,136.1,217.1,129.7,221.9,120.2"/>
	</g>
</g>
</svg>
